<svg width="700" height="700" viewBox="0 0 700 700" fill="none" xmlns="http://www.w3.org/2000/svg">
<path d="M400 300H570C586.569 300 600 313.431 600 330V370C600 386.569 586.569 400 570 400H400V300Z" fill="black"/>
<path d="M300 400H130C113.431 400 100 386.569 100 370V330C100 313.431 113.431 300 130 300H300V400Z" fill="black"/>
<path d="M400 350V570C400 586.569 386.569 600 370 600H330C313.431 600 300 586.569 300 570V350H400Z" fill="black"/>
<path d="M300 350V130C300 113.431 313.431 100 330 100H370C386.569 100 400 113.431 400 130V350H300Z" fill="black"/>
<path d="M675 350C675 529.493 529.493 675 350 675C170.507 675 25 529.493 25 350C25 170.507 170.507 25 350 25C529.493 25 675 170.507 675 350Z" stroke="black" stroke-width="50"/>
</svg>
