<?xml version="1.0" encoding="iso-8859-1"?>
<!-- Uploaded to: SVG Repo, www.svgrepo.com, Generator: SVG Repo Mixer Tools -->
<svg fill="#000000" height="800px" width="800px" version="1.1" id="Layer_1" xmlns="http://www.w3.org/2000/svg" xmlns:xlink="http://www.w3.org/1999/xlink" 
	 viewBox="0 0 511.999 511.999" xml:space="preserve">
<g>
	<g>
		<path d="M411.719,204.65c0-33.983-16.871-72.572-45.131-103.227c-26.999-29.288-60.04-47.179-94.435-51.472
			c0.981-8.972,8.596-15.976,17.822-15.976V0c-13.436,0-25.694,5.131-34.922,13.537C245.825,5.131,233.567,0,220.131,0v33.975
			c9.309,0,16.981,7.131,17.847,16.219c-33.723,4.698-66.057,22.472-92.566,51.229c-28.259,30.655-45.131,69.245-45.131,103.227
			c0,34.181,16.76,66.039,47.192,89.708c6.841,5.321,14.204,10.074,21.984,14.242c-16.731,19.76-26.837,45.301-26.837,73.161
			c0,36.024,29.307,65.331,65.331,65.331h2.751v30.932h-16.988v33.975h50.963v-64.907h22.65v64.907h50.963v-33.975h-16.988v-30.932
			h2.751c36.024,0,65.331-29.307,65.331-65.331c0-27.86-10.106-53.4-26.837-73.161c7.78-4.17,15.143-8.922,21.984-14.242
			C394.96,270.689,411.719,238.832,411.719,204.65z M331.944,396.056c-1.135-0.447-2.281-0.958-3.413-1.565
			c-5.369-2.878-12.509-8.503-12.509-24.054h-33.975c0,17.262,5.414,31.88,15.553,42.681h-83.202
			c10.138-10.8,15.553-25.418,15.553-42.681h-33.975c0,15.552-7.138,21.177-12.507,24.054c-1.133,0.607-2.279,1.118-3.413,1.565
			c-2.207-4.29-3.462-9.147-3.462-14.294c0-23.648,10.403-44.899,26.857-59.459c16.649,4.753,34.372,7.238,52.548,7.238
			c18.178,0,35.9-2.484,52.548-7.238c16.456,14.56,26.86,35.811,26.86,59.459C335.406,386.909,334.151,391.766,331.944,396.056z
			 M255.999,295.565c-67.13,0-121.744-40.784-121.744-90.914c0-25.29,13.847-56.021,36.136-80.2
			c14.304-15.516,44.445-41.545,85.608-41.545c41.164,0,71.305,26.028,85.608,41.545c22.29,24.18,36.136,54.909,36.136,80.199
			C377.744,254.782,323.129,295.565,255.999,295.565z"/>
	</g>
</g>
<g>
	<g>
		<circle cx="193.715" cy="194.893" r="16.988"/>
	</g>
</g>
<g>
	<g>
		<circle cx="318.291" cy="194.893" r="16.988"/>
	</g>
</g>
<g>
	<g>
		<path d="M255.999,218.964c-12.51,0-33.975,25.481-33.975,25.481l33.975,16.988l33.975-16.988
			C289.975,244.446,268.509,218.964,255.999,218.964z"/>
	</g>
</g>
</svg>